<?xml version="1.0" encoding="UTF-8" standalone="no"?>
<!-- Created with Inkscape (http://www.inkscape.org/) -->

<svg
   xmlns:dc="http://purl.org/dc/elements/1.1/"
   xmlns:cc="http://creativecommons.org/ns#"
   xmlns:rdf="http://www.w3.org/1999/02/22-rdf-syntax-ns#"
   xmlns:svg="http://www.w3.org/2000/svg"
   xmlns="http://www.w3.org/2000/svg"
   xmlns:xlink="http://www.w3.org/1999/xlink"
   version="1.2"
   width="1733.0916"
   height="410.07913"
   id="svg3055">
  <metadata
     id="metadata3061">
    <rdf:RDF>
      <cc:Work
         rdf:about="">
        <dc:format>image/svg+xml</dc:format>
        <dc:type
           rdf:resource="http://purl.org/dc/dcmitype/StillImage" />
        <dc:title></dc:title>
      </cc:Work>
    </rdf:RDF>
  </metadata>
  <defs
     id="defs3059" />
  <g
     transform="translate(-101.82952,-17.62375)"
     id="layer3"
     style="display:none">
    <image
       xlink:href="file:///home/picci/Scrivania/header-background.png"
       x="0"
       y="0"
       width="1995"
       height="475"
       id="image3063" />
  </g>
  <g
     transform="translate(-101.82952,-17.62375)"
     id="layer1"
     style="display:inline">
    <path
       d="m 1517.6101,233.93699 c -145.4703,0.1645 -246.6995,46.56429 -260.1876,53.6875 l 0,31.46875 c 0.3312,-0.17108 0.669,-0.32792 1,-0.5 99.863,-51.90611 260.3855,-55.28309 371.2499,-44.28125 110.8647,11.00183 176.8648,47.37486 190.6876,57.8125 13.8227,10.43764 12.434,16.08032 13.5624,10.15625 1.1285,-5.92406 3.0968,-25.92619 -29.0624,-50.46875 -32.1594,-24.54256 -127.7918,-56.43326 -280.1249,-57.84375 -2.3803,-0.022 -4.7678,-0.0339 -7.125,-0.0312 z"
       id="path3065"
       style="fill:#0e84fb;fill-opacity:1;stroke:#000000;stroke-width:1px;stroke-linecap:butt;stroke-linejoin:miter;stroke-opacity:1" />
    <path
       d="m 1257.4225,287.62449 c -0.2817,0.14881 -0.7641,0.38635 -0.9687,0.5 -10.1555,5.64197 -62.3547,49.08526 -256.1563,51.90625 -183.52226,2.67135 -272.52623,-41.88272 -281.46872,-46.625 l 0,32 c 71.9379,38.05603 184.73321,47.33837 259.75,49.3125 74.78942,1.96814 179.27882,-4.19257 278.84372,-55.625 l 0,-31.46875 z"
       id="path3132"
       style="fill:#c1defb;fill-opacity:1;stroke:#000000;stroke-width:1px;stroke-linecap:butt;stroke-linejoin:miter;stroke-opacity:1" />
    <path
       d="m 442.61003,243.09324 c -15.87374,-0.003 -28.84849,0.27684 -37.75,0.4375 -47.47371,0.85686 -141.23191,21.14691 -146.21875,22.34375 -4.98684,1.19684 -36.68401,11.96203 -42.46875,14.15625 -5.78474,2.19421 -30.90743,13.99125 -36.09375,17.78125 -5.18632,3.79001 -16.56165,12.33822 -23.34375,19.71875 -6.78211,7.38053 -10.78125,19.15625 -10.78125,19.15625 l 0,16.5625 c 8.67576,-4.88371 8.89726,-7.59008 23,-16.03125 104.93043,-62.80593 244.3084,-59.81335 297.625,-59.53125 53.3166,0.2821 180.2524,9.60421 252.1875,47.6875 0.0205,0.0109 0.042,0.0204 0.0625,0.0312 l 0,-32 c -0.50088,-0.26562 -0.90625,-0.46875 -0.90625,-0.46875 -83.2014,-44.39442 -206.52629,-49.83119 -275.3125,-49.84375 z"
       id="path3134"
       style="fill:#0e84fb;fill-opacity:1;stroke:#000000;stroke-width:1px;stroke-linecap:butt;stroke-linejoin:miter;stroke-opacity:1" />
    <path
       d="m 1517.6101,193.24435 c -145.4703,0.1645 -246.6995,46.56429 -260.1876,53.6875 l 0,31.46875 c 0.3312,-0.17108 0.669,-0.32792 1,-0.5 99.863,-51.90611 260.3855,-55.28309 371.2499,-44.28125 110.8647,11.00183 176.8648,47.37486 190.6876,57.8125 13.8227,10.43764 12.434,16.08032 13.5624,10.15625 1.1285,-5.92406 3.0968,-25.92619 -29.0624,-50.46875 -32.1594,-24.54256 -127.7918,-56.43326 -280.1249,-57.84375 -2.3803,-0.022 -4.7678,-0.0339 -7.125,-0.0312 z"
       id="path3145"
       style="fill:#4ba3fb;fill-opacity:1;stroke:#000000;stroke-width:1px;stroke-linecap:butt;stroke-linejoin:miter;stroke-opacity:1" />
    <path
       d="m 1257.4225,246.93185 c -0.2817,0.14881 -0.7641,0.38635 -0.9687,0.5 -10.1555,5.64197 -62.3547,49.08526 -256.1563,51.90625 -183.52226,2.67135 -272.52623,-41.88272 -281.46872,-46.625 l 0,32 c 71.9379,38.05603 184.73321,47.33837 259.75,49.3125 74.78942,1.96814 179.27882,-4.19257 278.84372,-55.625 l 0,-31.46875 z"
       id="path3147"
       style="fill:#86c0fb;fill-opacity:1;stroke:#000000;stroke-width:1px;stroke-linecap:butt;stroke-linejoin:miter;stroke-opacity:1" />
    <path
       d="m 442.61003,202.4006 c -15.87374,-0.003 -28.84849,0.27684 -37.75,0.4375 -47.47371,0.85686 -141.23191,21.14691 -146.21875,22.34375 -4.98684,1.19684 -36.68401,11.96203 -42.46875,14.15625 -5.78474,2.19421 -30.90743,13.99125 -36.09375,17.78125 -5.18632,3.79001 -16.56165,12.33822 -23.34375,19.71875 -6.78211,7.38053 -10.78125,19.15625 -10.78125,19.15625 l 0,16.5625 c 8.67576,-4.88371 8.89726,-7.59008 23,-16.03125 104.93043,-62.80593 244.3084,-59.81335 297.625,-59.53125 53.3166,0.2821 180.2524,9.60421 252.1875,47.6875 0.0205,0.0109 0.042,0.0204 0.0625,0.0312 l 0,-32 c -0.50088,-0.26562 -0.90625,-0.46875 -0.90625,-0.46875 -83.2014,-44.39442 -206.52629,-49.83119 -275.3125,-49.84375 z"
       id="path3149"
       style="fill:#4ba3fb;fill-opacity:1;stroke:#000000;stroke-width:1px;stroke-linecap:butt;stroke-linejoin:miter;stroke-opacity:1" />
    <path
       d="m 1517.6101,150.82307 c -145.4703,0.1645 -246.6995,46.56429 -260.1876,53.6875 l 0,31.46875 c 0.3312,-0.17108 0.669,-0.32792 1,-0.5 99.863,-51.90611 260.3855,-55.28309 371.2499,-44.28125 110.8647,11.00183 176.8648,47.37486 190.6876,57.8125 13.8227,10.43764 12.434,16.08032 13.5624,10.15625 1.1285,-5.92406 3.0968,-25.92619 -29.0624,-50.46875 -32.1594,-24.54256 -127.7918,-56.43326 -280.1249,-57.84375 -2.3803,-0.022 -4.7678,-0.0339 -7.125,-0.0312 z"
       id="path3151"
       style="fill:#86c0fb;fill-opacity:1;stroke:#000000;stroke-width:1px;stroke-linecap:butt;stroke-linejoin:miter;stroke-opacity:1" />
    <path
       d="m 1257.4225,204.51057 c -0.2817,0.14881 -0.7641,0.38635 -0.9687,0.5 -10.1555,5.64197 -62.3547,49.08526 -256.1563,51.90625 -183.52226,2.67135 -272.52623,-41.88272 -281.46872,-46.625 l 0,32 c 71.9379,38.05603 184.73321,47.33837 259.75,49.3125 74.78942,1.96814 179.27882,-4.19257 278.84372,-55.625 l 0,-31.46875 z"
       id="path3153"
       style="fill:#4ba3fb;fill-opacity:1;stroke:#000000;stroke-width:1px;stroke-linecap:butt;stroke-linejoin:miter;stroke-opacity:1" />
    <path
       d="m 442.61003,159.97932 c -15.87374,-0.003 -28.84849,0.27684 -37.75,0.4375 -47.47371,0.85686 -141.23191,21.14691 -146.21875,22.34375 -4.98684,1.19684 -36.68401,11.96203 -42.46875,14.15625 -5.78474,2.19421 -30.90743,13.99125 -36.09375,17.78125 -5.18632,3.79001 -16.56165,12.33822 -23.34375,19.71875 -6.78211,7.38053 -10.78125,19.15625 -10.78125,19.15625 l 0,16.5625 c 8.67576,-4.88371 8.89726,-7.59008 23,-16.03125 104.93043,-62.80593 244.3084,-59.81335 297.625,-59.53125 53.3166,0.2821 180.2524,9.60421 252.1875,47.6875 0.0205,0.0109 0.042,0.0204 0.0625,0.0312 l 0,-32 c -0.50088,-0.26562 -0.90625,-0.46875 -0.90625,-0.46875 -83.2014,-44.39442 -206.52629,-49.83119 -275.3125,-49.84375 z"
       id="path3155"
       style="fill:#86c0fb;fill-opacity:1;stroke:#000000;stroke-width:1px;stroke-linecap:butt;stroke-linejoin:miter;stroke-opacity:1" />
    <path
       d="m 1517.6101,109.33253 c -145.4703,0.1645 -246.6995,46.56429 -260.1876,53.6875 l 0,31.46875 c 0.3312,-0.17108 0.669,-0.32792 1,-0.5 99.863,-51.90611 260.3855,-55.28309 371.2499,-44.28125 110.8647,11.00183 176.8648,47.37486 190.6876,57.8125 13.8227,10.43764 12.434,16.08032 13.5624,10.15625 1.1285,-5.92406 3.0968,-25.92619 -29.0624,-50.46875 -32.1594,-24.54256 -127.7918,-56.43326 -280.1249,-57.84375 -2.3803,-0.022 -4.7678,-0.0339 -7.125,-0.0312 z"
       id="path3157"
       style="fill:#c1defb;fill-opacity:1;stroke:#000000;stroke-width:1px;stroke-linecap:butt;stroke-linejoin:miter;stroke-opacity:1" />
    <path
       d="m 1257.4225,163.02003 c -0.2817,0.14881 -0.7641,0.38635 -0.9687,0.5 -10.1555,5.64197 -62.3547,49.08526 -256.1563,51.90625 -183.52226,2.67135 -272.52623,-41.88272 -281.46872,-46.625 l 0,32 c 71.9379,38.05603 184.73321,47.33837 259.75,49.3125 74.78942,1.96814 179.27882,-4.19257 278.84372,-55.625 l 0,-31.46875 z"
       id="path3159"
       style="fill:#0e84fb;fill-opacity:1;stroke:#000000;stroke-width:1px;stroke-linecap:butt;stroke-linejoin:miter;stroke-opacity:1" />
    <path
       d="m 442.61003,118.48878 c -15.87374,-0.003 -28.84849,0.27684 -37.75,0.4375 -47.47371,0.85686 -141.23191,21.14691 -146.21875,22.34375 -4.98684,1.19684 -36.68401,11.96203 -42.46875,14.15625 -5.78474,2.19421 -30.90743,13.99125 -36.09375,17.78125 -5.18632,3.79001 -16.56165,12.33822 -23.34375,19.71875 -6.78211,7.38053 -10.78125,19.15625 -10.78125,19.15625 l 0,16.5625 c 8.67576,-4.88371 8.89726,-7.59008 23,-16.03125 104.93043,-62.80593 244.3084,-59.81335 297.625,-59.53125 53.3166,0.2821 180.2524,9.60421 252.1875,47.6875 0.0205,0.0109 0.042,0.0204 0.0625,0.0312 l 0,-32 c -0.50088,-0.26562 -0.90625,-0.46875 -0.90625,-0.46875 -83.2014,-44.39442 -206.52629,-49.83119 -275.3125,-49.84375 z"
       id="path3161"
       style="fill:#c1defb;fill-opacity:1;stroke:#000000;stroke-width:1px;stroke-linecap:butt;stroke-linejoin:miter;stroke-opacity:1" />
  </g>
  <g
     transform="translate(-101.82952,-17.62375)"
     id="layer2"
     style="display:inline">
    <path
       d="m 365.44217,18.40625 0,107.6875 c -6.35938,-4.25848 -17.91379,-4.27368 -29.34375,0.625 -14.7739,6.33184 -23.7664,18.4828 -20.0625,27.125 3.7039,8.6422 18.69485,10.51934 33.46875,4.1875 13.14083,-5.63193 21.68877,-15.85162 20.8125,-24.125 l 0.0937,0 0,-115.5 -4.96875,0 z"
       id="path3216"
       style="fill:#000000;fill-opacity:1;stroke:#000000;stroke-width:1.56500006;stroke-linecap:round;stroke-linejoin:round;stroke-miterlimit:4;stroke-opacity:1;stroke-dasharray:none;stroke-dashoffset:0" />
    <path
       d="m 585.47893,78.291307 0,107.687503 c -6.35938,-4.25848 -17.91379,-4.27368 -29.34375,0.625 -14.7739,6.33184 -23.7664,18.4828 -20.0625,27.125 3.7039,8.6422 18.69485,10.51934 33.46875,4.1875 13.14083,-5.63193 21.68877,-15.85162 20.8125,-24.125 l 0.0937,0 0,-115.500003 -4.96875,0 z"
       id="path3221"
       style="fill:#000000;fill-opacity:1;stroke:#000000;stroke-width:1.56500006;stroke-linecap:round;stroke-linejoin:round;stroke-miterlimit:4;stroke-opacity:1;stroke-dasharray:none;stroke-dashoffset:0" />
    <path
       d="m 804.9515,79.339508 0,107.687502 c -6.35938,-4.25848 -17.91379,-4.27368 -29.34375,0.625 -14.7739,6.33184 -23.7664,18.4828 -20.0625,27.125 3.7039,8.6422 18.69485,10.51934 33.46875,4.1875 13.14083,-5.63193 21.68877,-15.85162 20.8125,-24.125 l 0.0937,0 0,-115.500002 -4.96875,0 z"
       id="path3223"
       style="fill:#000000;fill-opacity:1;stroke:#000000;stroke-width:1.56500006;stroke-linecap:round;stroke-linejoin:round;stroke-miterlimit:4;stroke-opacity:1;stroke-dasharray:none;stroke-dashoffset:0" />
    <path
       d="m 1391.7162,60.237008 0,107.687502 c -6.3594,-4.25848 -17.9138,-4.27368 -29.3437,0.625 -14.7739,6.33184 -23.7664,18.4828 -20.0625,27.125 3.7039,8.6422 18.6948,10.51934 33.4687,4.1875 13.1408,-5.63193 21.6888,-15.85162 20.8125,-24.125 l 0.094,0 0,-115.500002 -4.9687,0 z"
       id="path3225"
       style="fill:#000000;fill-opacity:1;stroke:#000000;stroke-width:1.56500006;stroke-linecap:round;stroke-linejoin:round;stroke-miterlimit:4;stroke-opacity:1;stroke-dasharray:none;stroke-dashoffset:0" />
    <path
       d="m 467.46875,60.603948 -0.8125,15.15625 c 0.14347,0.805056 0.33413,2.319548 0.53125,4.0625 l 0,102.031252 c -6.35938,-4.25848 -17.91379,-4.27368 -29.34375,0.625 -14.7739,6.33184 -23.7664,18.4828 -20.0625,27.125 3.7039,8.6422 18.69485,10.51934 33.46875,4.1875 13.14083,-5.63193 21.68877,-15.85162 20.8125,-24.125 l 0.0937,0 0,-87.96875 c 0.4587,0.52163 0.95725,0.83561 1.5,0.875 5.685,-0.0997 11.35401,-4.876122 24.71875,11.28125 13.36474,16.15737 12.36302,18.55158 12.5625,28.625 0.19947,10.07342 -8.25,29.125 -8.25,29.125 0,0 -4.39704,9.17362 -0.90625,6.28125 3.49079,-2.89237 13.4521,-26.33632 14.25,-30.625 0.79789,-4.28869 2.29467,-13.45316 -2.09375,-24.125 -4.38842,-10.67184 -29.82362,-34.519738 -36.40625,-42.000002 -6.58263,-7.480264 -5.0625,-20.4375 -5.0625,-20.4375 l -5,-0.09375 z"
       id="path3227"
       style="fill:#000000;fill-opacity:1;stroke:#000000;stroke-width:1.56500006;stroke-linecap:round;stroke-linejoin:round;stroke-miterlimit:4;stroke-opacity:1;stroke-dasharray:none;stroke-dashoffset:0" />
    <path
       d="m 686.09193,89.328161 -0.8125,15.156249 c 0.14347,0.80506 0.33413,2.31955 0.53125,4.0625 l 0,102.03125 c -6.35938,-4.25848 -17.91379,-4.27368 -29.34375,0.625 -14.7739,6.33184 -23.7664,18.4828 -20.0625,27.125 3.7039,8.6422 18.69485,10.51934 33.46875,4.1875 13.14083,-5.63193 21.68877,-15.85162 20.8125,-24.125 l 0.0937,0 0,-87.96875 c 0.4587,0.52163 0.95725,0.83562 1.5,0.875 5.685,-0.0997 11.35401,-4.87612 24.71875,11.28125 13.36474,16.15737 12.36302,18.55158 12.5625,28.625 0.19947,10.07342 -8.25,29.125 -8.25,29.125 0,0 -4.39704,9.17362 -0.90625,6.28125 3.49079,-2.89237 13.4521,-26.33632 14.25,-30.625 0.79789,-4.28869 2.29467,-13.45316 -2.09375,-24.125 -4.38842,-10.67184 -29.82362,-34.51973 -36.40625,-42 -6.58263,-7.48026 -5.0625,-20.437499 -5.0625,-20.437499 l -5,-0.09375 z"
       id="path3232"
       style="fill:#000000;fill-opacity:1;stroke:#000000;stroke-width:1.56500006;stroke-linecap:round;stroke-linejoin:round;stroke-miterlimit:4;stroke-opacity:1;stroke-dasharray:none;stroke-dashoffset:0" />
    <path
       d="m 872.00142,141.98922 -0.8125,15.15625 c 0.14347,0.80505 0.33413,2.31955 0.53125,4.0625 l 0,102.03125 c -6.35938,-4.25848 -17.91379,-4.27368 -29.34375,0.625 -14.7739,6.33184 -23.7664,18.4828 -20.0625,27.125 3.7039,8.6422 18.69485,10.51934 33.46875,4.1875 13.14083,-5.63193 21.68877,-15.85162 20.8125,-24.125 l 0.0937,0 0,-87.96875 c 0.4587,0.52163 0.95725,0.83562 1.5,0.875 5.685,-0.0997 11.35401,-4.87612 24.71875,11.28125 13.36474,16.15737 12.36302,18.55158 12.5625,28.625 0.19947,10.07342 -8.25,29.125 -8.25,29.125 0,0 -4.39704,9.17362 -0.90625,6.28125 3.49079,-2.89237 13.4521,-26.33632 14.25,-30.625 0.79789,-4.28869 2.29467,-13.45316 -2.09375,-24.125 -4.38842,-10.67184 -29.82362,-34.51973 -36.40625,-42 -6.58263,-7.48027 -5.0625,-20.4375 -5.0625,-20.4375 l -5,-0.0937 z"
       id="path3234"
       style="fill:#000000;fill-opacity:1;stroke:#000000;stroke-width:1.56500006;stroke-linecap:round;stroke-linejoin:round;stroke-miterlimit:4;stroke-opacity:1;stroke-dasharray:none;stroke-dashoffset:0" />
    <path
       d="m 970.94038,151.56396 -0.8125,15.15625 c 0.14347,0.80505 0.33413,2.31955 0.53125,4.0625 l 0,102.03125 c -6.35938,-4.25848 -17.91379,-4.27368 -29.34375,0.625 -14.7739,6.33184 -23.7664,18.4828 -20.0625,27.125 3.7039,8.6422 18.69485,10.51934 33.46875,4.1875 13.14083,-5.63193 21.68877,-15.85162 20.8125,-24.125 l 0.0937,0 0,-87.96875 c 0.4587,0.52163 0.95725,0.83562 1.5,0.875 5.685,-0.0997 11.35401,-4.87612 24.71877,11.28125 13.3647,16.15737 12.363,18.55158 12.5625,28.625 0.1994,10.07342 -8.25,29.125 -8.25,29.125 0,0 -4.3971,9.17362 -0.9063,6.28125 3.4908,-2.89237 13.4521,-26.33632 14.25,-30.625 0.7979,-4.28869 2.2947,-13.45316 -2.0937,-24.125 -4.3884,-10.67184 -29.82364,-34.51973 -36.40627,-42 -6.58263,-7.48027 -5.0625,-20.4375 -5.0625,-20.4375 l -5,-0.0937 z"
       id="path3236"
       style="fill:#000000;fill-opacity:1;stroke:#000000;stroke-width:1.56500006;stroke-linecap:round;stroke-linejoin:round;stroke-miterlimit:4;stroke-opacity:1;stroke-dasharray:none;stroke-dashoffset:0" />
    <path
       d="m 1070.6772,176.2987 -0.8125,15.15625 c 0.1435,0.80505 0.3342,2.31955 0.5313,4.0625 l 0,102.03125 c -6.3594,-4.25848 -17.9138,-4.27368 -29.3438,0.625 -14.7739,6.33184 -23.7664,18.4828 -20.0625,27.125 3.7039,8.6422 18.6949,10.51934 33.4688,4.1875 13.1408,-5.63193 21.6888,-15.85162 20.8125,-24.125 l 0.094,0 0,-87.96875 c 0.4587,0.52163 0.9572,0.83562 1.5,0.875 5.685,-0.0997 11.354,-4.87612 24.7188,11.28125 13.3647,16.15737 12.363,18.55158 12.5625,28.625 0.1994,10.07342 -8.25,29.125 -8.25,29.125 0,0 -4.3971,9.17362 -0.9063,6.28125 3.4908,-2.89237 13.4521,-26.33632 14.25,-30.625 0.7979,-4.28869 2.2947,-13.45316 -2.0937,-24.125 -4.3884,-10.67184 -29.8237,-34.51973 -36.4063,-42 -6.5826,-7.48027 -5.0625,-20.4375 -5.0625,-20.4375 l -5,-0.0937 z"
       id="path3238"
       style="fill:#000000;fill-opacity:1;stroke:#000000;stroke-width:1.56500006;stroke-linecap:round;stroke-linejoin:round;stroke-miterlimit:4;stroke-opacity:1;stroke-dasharray:none;stroke-dashoffset:0" />
    <path
       d="m 1195.1488,134.01027 -0.8125,15.15625 c 0.1435,0.80505 0.3342,2.31955 0.5313,4.0625 l 0,102.03125 c -6.3594,-4.25848 -17.9138,-4.27368 -29.3438,0.625 -14.7739,6.33184 -23.7664,18.4828 -20.0625,27.125 3.7039,8.6422 18.6949,10.51934 33.4688,4.1875 13.1408,-5.63193 21.6888,-15.85162 20.8125,-24.125 l 0.094,0 0,-87.96875 c 0.4587,0.52163 0.9572,0.83562 1.5,0.875 5.685,-0.0997 11.354,-4.87612 24.7188,11.28125 13.3647,16.15737 12.363,18.55158 12.5625,28.625 0.1994,10.07342 -8.25,29.125 -8.25,29.125 0,0 -4.3971,9.17362 -0.9063,6.28125 3.4908,-2.89237 13.4521,-26.33632 14.25,-30.625 0.7979,-4.28869 2.2947,-13.45316 -2.0937,-24.125 -4.3884,-10.67184 -29.8237,-34.51973 -36.4063,-42 -6.5826,-7.48027 -5.0625,-20.4375 -5.0625,-20.4375 l -5,-0.0937 z"
       id="path3240"
       style="fill:#000000;fill-opacity:1;stroke:#000000;stroke-width:1.56500006;stroke-linecap:round;stroke-linejoin:round;stroke-miterlimit:4;stroke-opacity:1;stroke-dasharray:none;stroke-dashoffset:0" />
    <path
       d="m 1528.6688,27.89026 -0.8125,15.15625 c 0.1435,0.80505 0.3342,2.31955 0.5313,4.0625 l 0,102.03125 c -6.3594,-4.25848 -17.9138,-4.27368 -29.3438,0.625 -14.7739,6.33184 -23.7664,18.4828 -20.0625,27.125 3.7039,8.6422 18.6949,10.51934 33.4688,4.1875 13.1408,-5.63193 21.6888,-15.85162 20.8125,-24.125 l 0.094,0 0,-87.96875 c 0.4587,0.52163 0.9572,0.83562 1.5,0.875 5.685,-0.0997 11.354,-4.87612 24.7188,11.28125 13.3647,16.15737 12.363,18.55158 12.5625,28.625 0.1994,10.07342 -8.25,29.125 -8.25,29.125 0,0 -4.3971,9.17362 -0.9063,6.28125 3.4908,-2.89237 13.4521,-26.33632 14.25,-30.625 0.7979,-4.28869 2.2947,-13.45316 -2.0937,-24.125 -4.3884,-10.67184 -29.8237,-34.51973 -36.4063,-42 -6.5826,-7.48027 -5.0625,-20.4375 -5.0625,-20.4375 l -5,-0.0937 z"
       id="path3242"
       style="fill:#000000;fill-opacity:1;stroke:#000000;stroke-width:1.56500006;stroke-linecap:round;stroke-linejoin:round;stroke-miterlimit:4;stroke-opacity:1;stroke-dasharray:none;stroke-dashoffset:0" />
    <text
       x="86.970535"
       y="114.75049"
       id="text3244"
       xml:space="preserve"
       style="font-size:24px;font-style:italic;font-variant:normal;font-weight:500;font-stretch:normal;text-align:center;line-height:125%;letter-spacing:0px;word-spacing:0px;text-anchor:middle;fill:#000000;fill-opacity:1;stroke:none;font-family:TeX Gyre Chorus;-inkscape-font-specification:Sans Italic"><tspan
         x="86.970535"
         y="114.75049"
         id="tspan3246" /></text>
    <flowRoot
       id="flowRoot3248"
       xml:space="preserve"
       style="font-size:24px;font-style:italic;font-variant:normal;font-weight:500;font-stretch:normal;text-align:center;line-height:125%;letter-spacing:0px;word-spacing:0px;text-anchor:middle;fill:#000000;fill-opacity:1;stroke:none;font-family:TeX Gyre Chorus;-inkscape-font-specification:Sans Italic"><flowRegion
         id="flowRegion3250"><rect
           width="6.4882636"
           height="90.694641"
           x="241.19415"
           y="99.244911"
           id="rect3252" /></flowRegion><flowPara
         id="flowPara3254" /></flowRoot>    <flowRoot
       id="flowRoot3256"
       xml:space="preserve"
       style="font-size:24px;font-style:italic;font-variant:normal;font-weight:500;font-stretch:normal;text-align:center;line-height:125%;letter-spacing:0px;word-spacing:0px;text-anchor:middle;fill:#000000;fill-opacity:1;stroke:none;font-family:TeX Gyre Chorus;-inkscape-font-specification:Sans Italic"><flowRegion
         id="flowRegion3258"><rect
           width="6.629313"
           height="89.848343"
           x="262.91571"
           y="96.000778"
           id="rect3260" /></flowRegion><flowPara
         id="flowPara3262" /></flowRoot>    <path
       d="m 263.34375,96 0,24.625 -15.65625,2.1875 0,-23.71875 -6.90625,0 0,24.71875 -9.875,1.375 0,11.4375 9.875,-1.34375 0,19.28125 -9.875,1.375 0,11.4375 9.875,-1.34375 0,23.90625 6.90625,0 0,-24.8125 15.65625,-2.125 0,22.84375 6.1875,0 0,-23.6875 10.4375,-1.40625 0,-11.71875 -10.4375,1.46875 0,-19.09375 10.4375,-1.40625 0,-11.71875 -10.4375,1.46875 0,-23.75 -6.1875,0 z m 0,36.25 0,19.125 -15.65625,2.1875 0,-19.1875 15.65625,-2.125 z"
       id="rect3264"
       style="fill:#000000;fill-opacity:1;stroke:#000000;stroke-width:1.56500006;stroke-linecap:round;stroke-linejoin:round;stroke-miterlimit:4;stroke-opacity:1;stroke-dasharray:none;stroke-dashoffset:0" />
    <path
       d="m 174.73896,413.16315 c 15.16001,-5.18631 11.56948,-1.99474 17.15474,-7.58 5.58527,-5.58526 9.97369,-16.35684 -0.39894,-28.32526 -10.37264,-11.96843 -23.9283,-8.75004 -29.85237,-4.09542 -5.92406,4.65463 -13.11757,13.54073 -12.97652,21.58053 0.14104,8.03981 7.05246,19.88794 16.22065,26.23515 9.1682,6.34722 30.74873,7.33456 38.50644,5.21882 7.7577,-2.11573 26.79935,-10.71974 31.17187,-22.99102 4.37253,-12.27128 3.94938,-16.36171 2.96204,-23.69626 -0.98735,-7.33456 -73.16054,-231.04814 -74.45712,-236.43393 -1.29658,-5.38579 -5.685,-21.6429 -1.59579,-38.99711 4.08921,-17.354214 11.56948,-30.818689 20.74527,-32.813426 9.17579,-1.994737 16.15737,4.887106 17.25447,9.873948 1.09711,4.986843 0.69816,18.850265 -0.49868,23.238688 -1.19684,4.38842 -10.2729,24.53526 -12.56684,27.62711 -2.29395,3.09184 -31.41711,34.20974 -36.10474,39.29632 -4.68764,5.08658 -25.53264,28.72421 -29.2229,34.80816 -3.69027,6.08395 -18.85027,29.2229 -18.75053,47.67421 0.0997,18.45132 10.37263,48.77132 24.93421,62.13606 14.56158,13.36474 38.89738,21.84237 55.15448,21.94211 16.25711,0.0997 29.32264,-2.99211 41.98922,-9.97369 12.66658,-6.98158 25.23342,-21.44342 28.32526,-28.82395 3.09184,-7.38052 6.88185,-23.8371 3.29132,-35.10737 -3.59053,-11.27026 -12.36737,-27.52737 -29.2229,-35.10737 -16.85553,-7.58 -29.62184,-5.48553 -40.39342,-2.59316 -10.77158,2.89237 -21.94211,13.265 -27.22816,21.04448 -5.28606,7.77947 -8.3779,17.55368 -8.3779,25.33316 0,7.77947 6.88184,21.34368 10.87132,25.73211 3.98947,4.38842 16.05763,11.66921 21.54316,13.36473 5.48552,1.69553 6.18368,-1.69552 6.18368,-1.69552 0,0 -1.79526,-0.99737 -5.88447,-3.39106 -4.08921,-2.39368 -9.87395,-5.18631 -13.36474,-9.67447 -3.49079,-4.48816 -5.48553,-14.76105 -4.48816,-19.24921 0.99737,-4.48816 3.59053,-11.56948 8.27816,-15.75843 4.68763,-4.18894 9.07605,-8.77684 14.16263,-10.37263 5.08658,-1.59579 17.15474,-3.39105 26.43027,0.0997 9.27553,3.49079 20.14684,9.87395 24.43553,19.54842 4.28868,9.67448 4.98684,22.64027 0.59842,31.21764 -4.38842,8.57737 -12.76632,18.45131 -21.54316,22.24131 -8.77685,3.79 -15.35948,6.28343 -29.52211,6.28343 -14.16263,0 -30.22027,-1.99474 -42.88685,-11.27027 -12.66658,-9.27553 -21.04447,-20.34632 -22.93947,-30.51947 -1.895,-10.17316 -0.39895,-29.52211 3.98947,-38.89738 4.38842,-9.37526 14.16263,-26.72947 24.83448,-37.10211 10.67184,-10.37263 31.51684,-31.91579 35.20711,-35.90526 3.69026,-3.98948 18.35158,-28.92369 20.845,-40.29369 2.49342,-11.37 4.68763,-34.80816 3.19158,-42.288426 -1.49606,-7.480264 -18.05237,-55.852637 -30.91843,-55.952374 -12.86605,-0.09974 -23.43816,22.141582 -27.6271,37.600794 -4.18895,15.459212 -3.49079,38.997106 -1.09711,51.563956 2.39368,12.56684 64.62948,206.35554 64.62948,206.35554 0,0 9.97369,24.73474 10.97105,30.61922 0.99737,5.88447 3.49079,12.96579 3.39106,19.94737 -0.0997,6.98158 -1.39632,19.14947 -9.475,24.83447 -8.07869,5.685 -11.37001,11.37 -24.53527,11.56948 -13.16526,0.19947 -17.65342,-1.19685 -20.845,-5.08658 -3.19158,-3.88974 -0.49869,-2.99211 -0.49869,-2.99211 z"
       id="path3292"
       style="fill:#000000;fill-opacity:1;stroke:#000000;stroke-width:1px;stroke-linecap:butt;stroke-linejoin:miter;stroke-opacity:1" />
  </g>
</svg>
