<?xml version="1.0" encoding="UTF-8" standalone="no"?>
<!-- Created with Inkscape (http://www.inkscape.org/) -->

<svg
   xmlns:dc="http://purl.org/dc/elements/1.1/"
   xmlns:cc="http://creativecommons.org/ns#"
   xmlns:rdf="http://www.w3.org/1999/02/22-rdf-syntax-ns#"
   xmlns:svg="http://www.w3.org/2000/svg"
   xmlns="http://www.w3.org/2000/svg"
   xmlns:sodipodi="http://sodipodi.sourceforge.net/DTD/sodipodi-0.dtd"
   xmlns:inkscape="http://www.inkscape.org/namespaces/inkscape"
   width="256"
   height="256"
   id="svg3597"
   version="1.1"
   inkscape:version="0.48.5 r10040"
   sodipodi:docname="icon-facebook.svg">
  <defs
     id="defs3599" />
  <sodipodi:namedview
     id="base"
     pagecolor="#ffffff"
     bordercolor="#666666"
     borderopacity="1.0"
     inkscape:pageopacity="0.0"
     inkscape:pageshadow="2"
     inkscape:zoom="1.979899"
     inkscape:cx="116.56465"
     inkscape:cy="120.82688"
     inkscape:document-units="px"
     inkscape:current-layer="layer1"
     showgrid="false"
     showguides="true"
     inkscape:guide-bbox="true"
     fit-margin-top="0"
     fit-margin-left="0"
     fit-margin-right="0"
     fit-margin-bottom="0"
     inkscape:window-width="956"
     inkscape:window-height="1018"
     inkscape:window-x="0"
     inkscape:window-y="0"
     inkscape:window-maximized="0" />
  <metadata
     id="metadata3602">
    <rdf:RDF>
      <cc:Work
         rdf:about="">
        <dc:format>image/svg+xml</dc:format>
        <dc:type
           rdf:resource="http://purl.org/dc/dcmitype/StillImage" />
        <dc:title></dc:title>
      </cc:Work>
    </rdf:RDF>
  </metadata>
  <g
     inkscape:label="Livello 1"
     inkscape:groupmode="layer"
     id="layer1"
     transform="translate(-256.00001,-540.36218)">
    <path
       sodipodi:type="arc"
       style="fill:#194eae;fill-opacity:1;stroke:none"
       id="path3605"
       sodipodi:cx="291.42856"
       sodipodi:cy="249.50504"
       sodipodi:rx="151.42857"
       sodipodi:ry="151.42857"
       d="m 442.85713,249.50504 c 0,83.63169 -67.79688,151.42857 -151.42857,151.42857 -83.63169,0 -151.42858,-67.79688 -151.42858,-151.42857 0,-83.6317 67.79689,-151.428578 151.42858,-151.428578 83.63169,0 151.42857,67.796878 151.42857,151.428578 z"
       transform="matrix(0.84528301,0,0,0.84528301,137.6604,457.45981)" />
    <path
       style="opacity:0.12;fill:#111111;fill-opacity:1;stroke:none"
       d="m 384,546.78125 0,243.15625 c 67.14205,0 121.5625,-54.42045 121.5625,-121.5625 0,-67.14205 -54.42045,-121.59375 -121.5625,-121.59375 z"
       id="path4905"
       inkscape:connector-curvature="0" />
    <g
       id="g298"
       transform="matrix(1.5090501,0,0,-1.5090501,393.2271,622.11734)"
       style="fill:#eeeeee;fill-opacity:0.94117647;stroke:none">
      <path
         d="m 0,0 c 0,6.763 5.754,5.755 5.754,5.755 l 18.129,0 0,20.142 -27.193,0 c -20.573,0 -21.104,-22.588 -21.104,-22.588 l 0,-15.394 0,-0.06 -11.698,-0.084 0,-18.416 11.698,0 0,-56.542 24.414,0 0,56.542 20.717,0 3.166,18.847 L 0,-11.969 0,-11.798 0,0 z"
         style="fill:#eeeeee;fill-opacity:0.94117647;fill-rule:nonzero;stroke:none"
         id="path300"
         inkscape:connector-curvature="0" />
    </g>
  </g>
</svg>
