<?xml version="1.0" encoding="UTF-8" standalone="no"?>
<!-- Created with Inkscape (http://www.inkscape.org/) -->

<svg
   xmlns:dc="http://purl.org/dc/elements/1.1/"
   xmlns:cc="http://creativecommons.org/ns#"
   xmlns:rdf="http://www.w3.org/1999/02/22-rdf-syntax-ns#"
   xmlns:svg="http://www.w3.org/2000/svg"
   xmlns="http://www.w3.org/2000/svg"
   xmlns:sodipodi="http://sodipodi.sourceforge.net/DTD/sodipodi-0.dtd"
   xmlns:inkscape="http://www.inkscape.org/namespaces/inkscape"
   width="256"
   height="256"
   id="svg3597"
   version="1.1"
   inkscape:version="0.48.5 r10040"
   sodipodi:docname="icon-easter-egg.svg">
  <defs
     id="defs3599">
    <clipPath
       clipPathUnits="userSpaceOnUse"
       id="clipPath178">
      <path
         inkscape:connector-curvature="0"
         d="m 425.823,554.163 c 6.884,-45.447 37.263,-62.169 64.806,-62.169 l 0,0 c 27.542,0 57.92,16.722 64.804,62.169 l 0,0 c 6.748,44.545 -29.631,110.189 -64.804,110.189 l 0,0 c -35.174,0 -71.553,-65.644 -64.806,-110.189"
         id="path180" />
    </clipPath>
  </defs>
  <sodipodi:namedview
     id="base"
     pagecolor="#ffffff"
     bordercolor="#666666"
     borderopacity="1.0"
     inkscape:pageopacity="0.0"
     inkscape:pageshadow="2"
     inkscape:zoom="1.979899"
     inkscape:cx="27.923765"
     inkscape:cy="120.82688"
     inkscape:document-units="px"
     inkscape:current-layer="layer1"
     showgrid="false"
     showguides="true"
     inkscape:guide-bbox="true"
     fit-margin-top="0"
     fit-margin-left="0"
     fit-margin-right="0"
     fit-margin-bottom="0"
     inkscape:window-width="1920"
     inkscape:window-height="1025"
     inkscape:window-x="-2"
     inkscape:window-y="-3"
     inkscape:window-maximized="1" />
  <metadata
     id="metadata3602">
    <rdf:RDF>
      <cc:Work
         rdf:about="">
        <dc:format>image/svg+xml</dc:format>
        <dc:type
           rdf:resource="http://purl.org/dc/dcmitype/StillImage" />
        <dc:title></dc:title>
      </cc:Work>
    </rdf:RDF>
  </metadata>
  <g
     inkscape:label="Livello 1"
     inkscape:groupmode="layer"
     id="layer1"
     transform="translate(-256.00001,-540.36218)">
    <path
       sodipodi:type="arc"
       style="fill:#e88181;fill-opacity:1;stroke:none"
       id="path3605"
       sodipodi:cx="291.42856"
       sodipodi:cy="249.50504"
       sodipodi:rx="151.42857"
       sodipodi:ry="151.42857"
       d="m 442.85713,249.50504 c 0,83.63169 -67.79688,151.42857 -151.42857,151.42857 -83.63169,0 -151.42858,-67.79688 -151.42858,-151.42857 0,-83.6317 67.79689,-151.428578 151.42858,-151.428578 83.63169,0 151.42857,67.796878 151.42857,151.428578 z"
       transform="matrix(0.84528301,0,0,0.84528301,137.6604,457.45981)" />
    <path
       style="opacity:0.12;fill:#111111;fill-opacity:1;stroke:none"
       d="m 384,546.78125 0,243.15625 c 67.14205,0 121.5625,-54.42045 121.5625,-121.5625 0,-67.14205 -54.42045,-121.59375 -121.5625,-121.59375 z"
       id="path4905"
       inkscape:connector-curvature="0" />
    <g
       transform="matrix(0.80466694,0,0,-0.80466694,59.438427,1122.3242)"
       id="g5863">
      <path
         d="m 403.34899,472.44457 c 30.491,0 55.359,4.976 55.359,11.076 0,6.101 -24.868,11.076 -55.359,11.076 -30.491,0 -55.359,-4.975 -55.359,-11.076 0,-6.1 24.868,-11.076 55.359,-11.076"
         style="fill:#bde5e2;fill-opacity:1;fill-rule:evenodd;stroke:none"
         id="path168"
         inkscape:connector-curvature="0" />
      <path
         d="m 403.34899,483.52067 c -27.542,0 -57.921,16.722 -64.805,62.169 -6.748,44.544 29.631,110.188 64.805,110.188 35.173,0 71.552,-65.644 64.805,-110.188 -6.885,-45.447 -37.263,-62.169 -64.805,-62.169"
         style="fill:#9ce33f;fill-opacity:1;fill-rule:evenodd;stroke:none"
         id="path172"
         inkscape:connector-curvature="0" />
      <g
         transform="translate(-87.279408,-8.4737292)"
         id="g176"
         clip-path="url(#clipPath178)">
        <g
           id="g182"
           transform="translate(436.4649,506.2603)">
          <path
             d="m 0,0 c 5.145,0 9.34,4.196 9.34,9.34 0,5.145 -4.195,9.341 -9.34,9.341 -5.145,0 -9.34,-4.196 -9.34,-9.341 C -9.34,4.196 -5.145,0 0,0"
             style="fill:#effffd;fill-opacity:1;fill-rule:evenodd;stroke:none"
             id="path184"
             inkscape:connector-curvature="0" />
        </g>
        <g
           id="g186"
           transform="translate(462.6377,501.0398)">
          <path
             d="m 0,0 c 4.416,0 8.018,3.601 8.018,8.017 0,4.417 -3.602,8.018 -8.018,8.018 -4.416,0 -8.018,-3.601 -8.018,-8.018 C -8.018,3.601 -4.416,0 0,0"
             style="fill:#f4e197;fill-opacity:1;fill-rule:evenodd;stroke:none"
             id="path188"
             inkscape:connector-curvature="0" />
        </g>
        <g
           id="g190"
           transform="translate(490.6284,497.8993)">
          <path
             d="m 0,0 c 5.145,0 9.341,4.196 9.341,9.34 0,5.145 -4.196,9.341 -9.341,9.341 -5.145,0 -9.34,-4.196 -9.34,-9.341 C -9.34,4.196 -5.145,0 0,0"
             style="fill:#effffd;fill-opacity:1;fill-rule:evenodd;stroke:none"
             id="path192"
             inkscape:connector-curvature="0" />
        </g>
        <g
           id="g194"
           transform="translate(544.792,506.2603)">
          <path
             d="m 0,0 c 5.145,0 9.34,4.196 9.34,9.34 0,5.145 -4.195,9.341 -9.34,9.341 -5.145,0 -9.341,-4.196 -9.341,-9.341 C -9.341,4.196 -5.145,0 0,0"
             style="fill:#effffd;fill-opacity:1;fill-rule:evenodd;stroke:none"
             id="path196"
             inkscape:connector-curvature="0" />
        </g>
        <g
           id="g198"
           transform="translate(518.6191,501.0398)">
          <path
             d="m 0,0 c 4.416,0 8.018,3.601 8.018,8.017 0,4.417 -3.602,8.018 -8.018,8.018 -4.416,0 -8.017,-3.601 -8.017,-8.018 C -8.017,3.601 -4.416,0 0,0"
             style="fill:#f4e197;fill-opacity:1;fill-rule:evenodd;stroke:none"
             id="path200"
             inkscape:connector-curvature="0" />
        </g>
        <g
           id="g202"
           transform="translate(436.4649,554.089)">
          <path
             d="m 0,0 c 5.145,0 9.34,4.196 9.34,9.34 0,5.145 -4.195,9.341 -9.34,9.341 -5.145,0 -9.34,-4.196 -9.34,-9.341 C -9.34,4.196 -5.145,0 0,0"
             style="fill:#f4e197;fill-opacity:1;fill-rule:evenodd;stroke:none"
             id="path204"
             inkscape:connector-curvature="0" />
        </g>
        <g
           id="g206"
           transform="translate(462.6377,548.8685)">
          <path
             d="m 0,0 c 4.416,0 8.018,3.601 8.018,8.018 0,4.416 -3.602,8.017 -8.018,8.017 -4.416,0 -8.018,-3.601 -8.018,-8.017 C -8.018,3.601 -4.416,0 0,0"
             style="fill:#effffd;fill-opacity:1;fill-rule:evenodd;stroke:none"
             id="path208"
             inkscape:connector-curvature="0" />
        </g>
        <g
           id="g210"
           transform="translate(490.6284,545.728)">
          <path
             d="m 0,0 c 5.145,0 9.341,4.196 9.341,9.34 0,5.145 -4.196,9.341 -9.341,9.341 -5.145,0 -9.34,-4.196 -9.34,-9.341 C -9.34,4.196 -5.145,0 0,0"
             style="fill:#f4e197;fill-opacity:1;fill-rule:evenodd;stroke:none"
             id="path212"
             inkscape:connector-curvature="0" />
        </g>
        <g
           id="g214"
           transform="translate(544.792,554.089)">
          <path
             d="m 0,0 c 5.145,0 9.34,4.196 9.34,9.34 0,5.145 -4.195,9.341 -9.34,9.341 -5.145,0 -9.341,-4.196 -9.341,-9.341 C -9.341,4.196 -5.145,0 0,0"
             style="fill:#f4e197;fill-opacity:1;fill-rule:evenodd;stroke:none"
             id="path216"
             inkscape:connector-curvature="0" />
        </g>
        <g
           id="g218"
           transform="translate(518.6191,548.8685)">
          <path
             d="m 0,0 c 4.416,0 8.018,3.601 8.018,8.018 0,4.416 -3.602,8.017 -8.018,8.017 -4.416,0 -8.017,-3.601 -8.017,-8.017 C -8.017,3.601 -4.416,0 0,0"
             style="fill:#effffd;fill-opacity:1;fill-rule:evenodd;stroke:none"
             id="path220"
             inkscape:connector-curvature="0" />
        </g>
        <g
           id="g222"
           transform="translate(436.4649,601.9177)">
          <path
             d="m 0,0 c 5.145,0 9.34,4.196 9.34,9.34 0,5.145 -4.195,9.341 -9.34,9.341 -5.145,0 -9.34,-4.196 -9.34,-9.341 C -9.34,4.196 -5.145,0 0,0"
             style="fill:#effffd;fill-opacity:1;fill-rule:evenodd;stroke:none"
             id="path224"
             inkscape:connector-curvature="0" />
        </g>
        <g
           id="g226"
           transform="translate(462.6377,596.6972)">
          <path
             d="m 0,0 c 4.416,0 8.018,3.601 8.018,8.017 0,4.417 -3.602,8.018 -8.018,8.018 -4.416,0 -8.018,-3.601 -8.018,-8.018 C -8.018,3.601 -4.416,0 0,0"
             style="fill:#f4e197;fill-opacity:1;fill-rule:evenodd;stroke:none"
             id="path228"
             inkscape:connector-curvature="0" />
        </g>
        <g
           id="g230"
           transform="translate(490.6284,593.5567)">
          <path
             d="m 0,0 c 5.145,0 9.341,4.196 9.341,9.34 0,5.145 -4.196,9.341 -9.341,9.341 -5.145,0 -9.34,-4.196 -9.34,-9.341 C -9.34,4.196 -5.145,0 0,0"
             style="fill:#effffd;fill-opacity:1;fill-rule:evenodd;stroke:none"
             id="path232"
             inkscape:connector-curvature="0" />
        </g>
        <g
           id="g234"
           transform="translate(544.792,601.9177)">
          <path
             d="m 0,0 c 5.145,0 9.34,4.196 9.34,9.34 0,5.145 -4.195,9.341 -9.34,9.341 -5.145,0 -9.341,-4.196 -9.341,-9.341 C -9.341,4.196 -5.145,0 0,0"
             style="fill:#effffd;fill-opacity:1;fill-rule:evenodd;stroke:none"
             id="path236"
             inkscape:connector-curvature="0" />
        </g>
        <g
           id="g238"
           transform="translate(518.6191,596.6972)">
          <path
             d="m 0,0 c 4.416,0 8.018,3.601 8.018,8.017 0,4.417 -3.602,8.018 -8.018,8.018 -4.416,0 -8.017,-3.601 -8.017,-8.018 C -8.017,3.601 -4.416,0 0,0"
             style="fill:#f4e197;fill-opacity:1;fill-rule:evenodd;stroke:none"
             id="path240"
             inkscape:connector-curvature="0" />
        </g>
        <g
           id="g242"
           transform="translate(436.4649,649.7464)">
          <path
             d="m 0,0 c 5.145,0 9.34,4.196 9.34,9.34 0,5.145 -4.195,9.341 -9.34,9.341 -5.145,0 -9.34,-4.196 -9.34,-9.341 C -9.34,4.196 -5.145,0 0,0"
             style="fill:#f4e197;fill-opacity:1;fill-rule:evenodd;stroke:none"
             id="path244"
             inkscape:connector-curvature="0" />
        </g>
        <g
           id="g246"
           transform="translate(462.6377,644.5259)">
          <path
             d="m 0,0 c 4.416,0 8.018,3.601 8.018,8.018 0,4.416 -3.602,8.017 -8.018,8.017 -4.416,0 -8.018,-3.601 -8.018,-8.017 C -8.018,3.601 -4.416,0 0,0"
             style="fill:#effffd;fill-opacity:1;fill-rule:evenodd;stroke:none"
             id="path248"
             inkscape:connector-curvature="0" />
        </g>
        <g
           id="g250"
           transform="translate(490.6284,641.3854)">
          <path
             d="m 0,0 c 5.145,0 9.341,4.196 9.341,9.34 0,5.145 -4.196,9.341 -9.341,9.341 -5.145,0 -9.34,-4.196 -9.34,-9.341 C -9.34,4.196 -5.145,0 0,0"
             style="fill:#f4e197;fill-opacity:1;fill-rule:evenodd;stroke:none"
             id="path252"
             inkscape:connector-curvature="0" />
        </g>
        <g
           id="g254"
           transform="translate(544.792,649.7464)">
          <path
             d="m 0,0 c 5.145,0 9.34,4.196 9.34,9.34 0,5.145 -4.195,9.341 -9.34,9.341 -5.145,0 -9.341,-4.196 -9.341,-9.341 C -9.341,4.196 -5.145,0 0,0"
             style="fill:#f4e197;fill-opacity:1;fill-rule:evenodd;stroke:none"
             id="path256"
             inkscape:connector-curvature="0" />
        </g>
        <g
           id="g258"
           transform="translate(518.6191,644.5259)">
          <path
             d="m 0,0 c 4.416,0 8.018,3.601 8.018,8.018 0,4.416 -3.602,8.017 -8.018,8.017 -4.416,0 -8.017,-3.601 -8.017,-8.017 C -8.017,3.601 -4.416,0 0,0"
             style="fill:#effffd;fill-opacity:1;fill-rule:evenodd;stroke:none"
             id="path260"
             inkscape:connector-curvature="0" />
        </g>
      </g>
      <path
         inkscape:connector-curvature="0"
         id="path284"
         style="opacity:0.19999701;fill:#000000;fill-opacity:1;fill-rule:evenodd;stroke:none"
         d="m 403.34899,483.52067 c -0.342,0 -0.684,0.005 -1.027,0.01 29.224,42.319 25.826,137.561 3.516,172.227 34.376,-2.975 68.90495,-66.574 62.31595,-110.068 -6.884,-45.447 -37.26295,-62.169 -64.80495,-62.169" />
    </g>
  </g>
</svg>
