<?xml version="1.0" encoding="UTF-8" standalone="no"?>
<!-- Created with Inkscape (http://www.inkscape.org/) -->

<svg
   xmlns:dc="http://purl.org/dc/elements/1.1/"
   xmlns:cc="http://creativecommons.org/ns#"
   xmlns:rdf="http://www.w3.org/1999/02/22-rdf-syntax-ns#"
   xmlns:svg="http://www.w3.org/2000/svg"
   xmlns="http://www.w3.org/2000/svg"
   xmlns:sodipodi="http://sodipodi.sourceforge.net/DTD/sodipodi-0.dtd"
   xmlns:inkscape="http://www.inkscape.org/namespaces/inkscape"
   version="1.1"
   width="256"
   height="256"
   id="svg3597"
   inkscape:version="0.48.5 r10040"
   sodipodi:docname="icon-home.svg">
  <sodipodi:namedview
     pagecolor="#ffffff"
     bordercolor="#666666"
     borderopacity="1"
     objecttolerance="10"
     gridtolerance="10"
     guidetolerance="10"
     inkscape:pageopacity="0"
     inkscape:pageshadow="2"
     inkscape:window-width="640"
     inkscape:window-height="480"
     id="namedview5248"
     showgrid="false"
     inkscape:zoom="0.921875"
     inkscape:cx="116.95935"
     inkscape:cy="114.20894"
     inkscape:window-x="0"
     inkscape:window-y="0"
     inkscape:window-maximized="0"
     inkscape:current-layer="svg3597" />
  <defs
     id="defs3599" />
  <metadata
     id="metadata3602">
    <rdf:RDF>
      <cc:Work
         rdf:about="">
        <dc:format>image/svg+xml</dc:format>
        <dc:type
           rdf:resource="http://purl.org/dc/dcmitype/StillImage" />
        <dc:title />
      </cc:Work>
    </rdf:RDF>
  </metadata>
  <path
     inkscape:connector-curvature="0"
     style="fill:#9fc1ff;fill-opacity:1;stroke:none"
     id="path3605"
     d="M 256,128 A 128.00001,128.00001 0 1 1 -5.5056602e-6,128 128.00001,128.00001 0 1 1 256,128 z" />
  <path
     inkscape:connector-curvature="0"
     style="opacity:0.12000002;fill:#111111;fill-opacity:1;stroke:none"
     id="path4905"
     d="m 127.99999,6.41907 0,243.15625 c 67.14205,0 121.5625,-54.42045 121.5625,-121.5625 0,-67.14205 -54.42045,-121.59375 -121.5625,-121.59375 z" />
  <path
     inkscape:connector-curvature="0"
     style="fill:#eeeeee;fill-opacity:1;stroke:none"
     id="path4897"
     d="m 127.53383,70.843314 -63.04274,63.070166 0,74.91638 127.01781,0 0,-74.01146 -63.97507,-63.975086 z m -13.49153,94.413296 27.9154,0 0,40.77622 -27.9154,0 0,-40.77622 z" />
  <path
     inkscape:connector-curvature="0"
     style="fill:#eeeeee;fill-opacity:1;stroke:none"
     id="path4903"
     d="m 51.387647,141.70962 76.313283,-76.31328 76.31328,76.31328 c 7.92688,-4.57659 3.9979,-11.9959 0,-15.99381 L 127.70093,49.402527 51.387647,125.71581 c -3.872445,3.87247 -6.593864,9.39996 0,15.99381 z" />
  <path
     inkscape:connector-curvature="0"
     style="fill:#eeeeee;fill-opacity:1;stroke:none"
     id="path4939"
     d="m 69.270327,102.92342 31.652603,-31.6526 0,-22.250838 -31.652603,0 z" />
</svg>
