<?xml version="1.0" encoding="UTF-8" standalone="no"?>
<!-- Created with Inkscape (http://www.inkscape.org/) -->

<svg
   xmlns:dc="http://purl.org/dc/elements/1.1/"
   xmlns:cc="http://creativecommons.org/ns#"
   xmlns:rdf="http://www.w3.org/1999/02/22-rdf-syntax-ns#"
   xmlns:svg="http://www.w3.org/2000/svg"
   xmlns="http://www.w3.org/2000/svg"
   xmlns:sodipodi="http://sodipodi.sourceforge.net/DTD/sodipodi-0.dtd"
   xmlns:inkscape="http://www.inkscape.org/namespaces/inkscape"
   width="256"
   height="256"
   id="svg3597"
   version="1.1"
   inkscape:version="0.48.5 r10040"
   sodipodi:docname="icon-youtube.svg">
  <defs
     id="defs3599" />
  <sodipodi:namedview
     id="base"
     pagecolor="#ffffff"
     bordercolor="#666666"
     borderopacity="1.0"
     inkscape:pageopacity="0.0"
     inkscape:pageshadow="2"
     inkscape:zoom="1.4"
     inkscape:cx="134.72116"
     inkscape:cy="175.89604"
     inkscape:document-units="px"
     inkscape:current-layer="layer1"
     showgrid="false"
     showguides="true"
     inkscape:guide-bbox="true"
     fit-margin-top="0"
     fit-margin-left="0"
     fit-margin-right="0"
     fit-margin-bottom="0"
     inkscape:window-width="956"
     inkscape:window-height="1018"
     inkscape:window-x="0"
     inkscape:window-y="0"
     inkscape:window-maximized="0" />
  <metadata
     id="metadata3602">
    <rdf:RDF>
      <cc:Work
         rdf:about="">
        <dc:format>image/svg+xml</dc:format>
        <dc:type
           rdf:resource="http://purl.org/dc/dcmitype/StillImage" />
        <dc:title></dc:title>
      </cc:Work>
    </rdf:RDF>
  </metadata>
  <g
     inkscape:label="Livello 1"
     inkscape:groupmode="layer"
     id="layer1"
     transform="translate(-256.00001,-540.36218)">
    <path
       sodipodi:type="arc"
       style="fill:#e32201;fill-opacity:1;stroke:none"
       id="path3605"
       sodipodi:cx="291.42856"
       sodipodi:cy="249.50504"
       sodipodi:rx="151.42857"
       sodipodi:ry="151.42857"
       d="m 442.85713,249.50504 c 0,83.63169 -67.79688,151.42857 -151.42857,151.42857 -83.63169,0 -151.42858,-67.79688 -151.42858,-151.42857 0,-83.6317 67.79689,-151.428578 151.42858,-151.428578 83.63169,0 151.42857,67.796878 151.42857,151.428578 z"
       transform="matrix(0.84528301,0,0,0.84528301,137.6604,457.45981)" />
    <path
       style="opacity:0.12;fill:#111111;fill-opacity:1;stroke:none"
       d="m 384,546.78125 0,243.15625 c 67.14205,0 121.5625,-54.42045 121.5625,-121.5625 0,-67.14205 -54.42045,-121.59375 -121.5625,-121.59375 z"
       id="path4905"
       inkscape:connector-curvature="0" />
    <g
       id="g656"
       transform="matrix(1.7789728,0,0,-1.7789728,366.9023,689.99983)"
       style="fill:#eeeeee;fill-opacity:1;stroke:none">
      <path
         d="M 0,0 0,26.213 25.121,13.107 0,0 z m 42.367,44.492 -65.511,0 c -7.485,0 -13.554,-6.072 -13.554,-13.564 l 0,-37.53 c 0,-7.49 6.069,-13.564 13.554,-13.564 l 65.511,0 c 7.486,0 13.553,6.074 13.553,13.564 l 0,37.53 c 0,7.492 -6.067,13.564 -13.553,13.564"
         style="fill:#eeeeee;fill-opacity:1;fill-rule:nonzero;stroke:none"
         id="path658"
         inkscape:connector-curvature="0" />
    </g>
  </g>
</svg>
