<?xml version="1.0" encoding="UTF-8" standalone="no"?>
<!-- Created with Inkscape (http://www.inkscape.org/) -->

<svg
   xmlns:dc="http://purl.org/dc/elements/1.1/"
   xmlns:cc="http://creativecommons.org/ns#"
   xmlns:rdf="http://www.w3.org/1999/02/22-rdf-syntax-ns#"
   xmlns:svg="http://www.w3.org/2000/svg"
   xmlns="http://www.w3.org/2000/svg"
   xmlns:sodipodi="http://sodipodi.sourceforge.net/DTD/sodipodi-0.dtd"
   xmlns:inkscape="http://www.inkscape.org/namespaces/inkscape"
   width="256"
   height="256"
   id="svg3597"
   version="1.1"
   inkscape:version="0.48.5 r10040"
   sodipodi:docname="icon-map.svg">
  <defs
     id="defs3599">
    <clipPath
       clipPathUnits="userSpaceOnUse"
       id="clipPath84">
      <path
         inkscape:connector-curvature="0"
         d="m 3805.52,11921.7 c -261.73,0 -501.9,-169.6 -590.61,-415.7 -89.2,-247.4 -9.99,-530.4 192.35,-697.5 202.69,-167.4 496.94,-189.3 722,-53.2 223.99,135.5 343.11,403 292.4,660 -57.29,290.4 -320.34,506.4 -616.14,506.4 z"
         id="path86" />
    </clipPath>
    <linearGradient
       x1="0"
       y1="0"
       x2="1"
       y2="0"
       gradientUnits="userSpaceOnUse"
       gradientTransform="matrix(339.447,0,0,-339.447,859.974,3055.61)"
       spreadMethod="pad"
       id="linearGradient88">
      <stop
         style="stop-opacity:1;stop-color:#37ab9c"
         offset="0"
         id="stop90" />
      <stop
         style="stop-opacity:1;stop-color:#00716d"
         offset="1"
         id="stop92" />
    </linearGradient>
    <clipPath
       clipPathUnits="userSpaceOnUse"
       id="clipPath68">
      <path
         inkscape:connector-curvature="0"
         d="m 4354.5,12507.4 c 570.13,-257.1 891.7,-899.1 752.13,-1509.1 -107.41,-469.5 -474.47,-853.6 -937.6,-984.6 -473.6,-133.83 -993.85,11.4 -1330.97,369.3 -364.75,387.2 -464.33,970.8 -245.05,1456.7 261.81,580.2 920.19,901.1 1538.76,745.4 76.4,-19.3 150.84,-45.6 222.73,-77.7 39.37,-17.8 -29.34,13.1 0,0 z M 2100.49,11294.3 c 0,-710 458.1,-1361.8 1125.31,-1604.04 672.15,-244.02 1443.39,-30.27 1898.46,519.64 456.03,551 516.61,1351.4 145.93,1963.8 -370.76,612.5 -1104.82,936 -1806.98,792 -687.75,-141 -1233.5,-712.6 -1342.15,-1406.3 -13.74,-87.7 -20.57,-176.4 -20.57,-265.1 z"
         id="path70" />
    </clipPath>
    <linearGradient
       x1="0"
       y1="0"
       x2="1"
       y2="0"
       gradientUnits="userSpaceOnUse"
       gradientTransform="matrix(923.01,0,0,-923.01,568.293,3055.88)"
       spreadMethod="pad"
       id="linearGradient72">
      <stop
         style="stop-opacity:1;stop-color:#00716d"
         offset="0"
         id="stop74" />
      <stop
         style="stop-opacity:1;stop-color:#37ab9c"
         offset="1"
         id="stop76" />
    </linearGradient>
    <clipPath
       clipPathUnits="userSpaceOnUse"
       id="clipPath36">
      <path
         inkscape:connector-curvature="0"
         d="M 5328.77,10736.6 C 5062.39,10011 4295.51,9562.48 3532.63,9692.7 c -579.31,98.91 -1071,520.6 -1261.48,1075.9 -194.79,567.9 -51.97,1212.1 362.32,1645.8 443.24,464.1 1137.3,625.5 1739.48,399.7 721.67,-270.6 1162.84,-1037.9 1030.7,-1798.4 -16.52,-95 -41.61,-188.5 -74.88,-279.1 -13.64,-37.1 63.98,174.1 0,0 z m 261.09,2341.4 c -612.85,612.8 -1519.11,870.9 -2362.86,672.9 -643.29,-151 -1211.19,-560 -1561.56,-1119.8 -177.78,-284.1 -297.8,-603.2 -350.9,-934.1 -57.93,-361 -27.38,-727.4 50.1,-1083.3 145.79,-669.56 451.69,-1299.9 800.35,-1885.66 303.89,-510.59 650.23,-996.08 1023.22,-1458.31 113.2,-140.31 228.99,-278.55 348.24,-413.75 62.32,-70.67 140.93,-179.37 230.03,-210.16 14.64,-5.11 36.52,-15.45 52.27,-16.16 20.66,-0.96 47.2,10.46 67.08,17.78 47.02,17.41 87.23,55.26 121.16,91.67 17.12,18.37 33.67,37.33 50.34,56.1 99.98,112.96 197.01,228.46 292.26,345.41 358.52,440.06 691.91,901.82 989.71,1385.13 360.41,584.88 679.36,1210.16 858.47,1876.15 97.32,362.1 154.39,743.1 121.19,1118 -34.92,394.7 -164.1,779 -375,1114.5 -100.91,160.5 -219.96,309.6 -354.1,443.6"
         id="path38" />
    </clipPath>
    <linearGradient
       x1="0"
       y1="0"
       x2="1"
       y2="0"
       gradientUnits="userSpaceOnUse"
       gradientTransform="matrix(1364.67,0,0,-1364.67,347.507,2765.86)"
       spreadMethod="pad"
       id="linearGradient40">
      <stop
         style="stop-opacity:1;stop-color:#37ab9c"
         offset="0"
         id="stop42" />
      <stop
         style="stop-opacity:1;stop-color:#00716d"
         offset="1"
         id="stop44" />
    </linearGradient>
  </defs>
  <sodipodi:namedview
     id="base"
     pagecolor="#ffffff"
     bordercolor="#666666"
     borderopacity="1.0"
     inkscape:pageopacity="0.0"
     inkscape:pageshadow="2"
     inkscape:zoom="1.4"
     inkscape:cx="110.90532"
     inkscape:cy="202.07796"
     inkscape:document-units="px"
     inkscape:current-layer="layer1"
     showgrid="false"
     showguides="true"
     inkscape:guide-bbox="true"
     fit-margin-top="0"
     fit-margin-left="0"
     fit-margin-right="0"
     fit-margin-bottom="0"
     inkscape:window-width="956"
     inkscape:window-height="1018"
     inkscape:window-x="0"
     inkscape:window-y="0"
     inkscape:window-maximized="0" />
  <metadata
     id="metadata3602">
    <rdf:RDF>
      <cc:Work
         rdf:about="">
        <dc:format>image/svg+xml</dc:format>
        <dc:type
           rdf:resource="http://purl.org/dc/dcmitype/StillImage" />
        <dc:title></dc:title>
      </cc:Work>
    </rdf:RDF>
  </metadata>
  <g
     inkscape:label="Livello 1"
     inkscape:groupmode="layer"
     id="layer1"
     transform="translate(-256.00001,-540.36218)">
    <path
       sodipodi:type="arc"
       style="fill:#c1defb;fill-opacity:1;stroke:none"
       id="path3605"
       sodipodi:cx="291.42856"
       sodipodi:cy="249.50504"
       sodipodi:rx="151.42857"
       sodipodi:ry="151.42857"
       d="m 442.85713,249.50504 c 0,83.63169 -67.79688,151.42857 -151.42857,151.42857 -83.63169,0 -151.42858,-67.79688 -151.42858,-151.42857 0,-83.6317 67.79689,-151.428578 151.42858,-151.428578 83.63169,0 151.42857,67.796878 151.42857,151.428578 z"
       transform="matrix(0.84528301,0,0,0.84528301,137.6604,457.45981)" />
    <path
       style="opacity:0.12;fill:#111111;fill-opacity:1;stroke:none"
       d="m 384,546.78125 0,243.15625 c 67.14205,0 121.5625,-54.42045 121.5625,-121.5625 0,-67.14205 -54.42045,-121.59375 -121.5625,-121.59375 z"
       id="path4905"
       inkscape:connector-curvature="0" />
    <g
       id="g32"
       transform="matrix(0.02442926,0,0,-0.02442926,291.01133,918.10309)"
       style="fill:#eeeeee;fill-opacity:1;stroke:none">
      <g
         clip-path="url(#clipPath36)"
         id="g34"
         style="fill:#eeeeee;fill-opacity:1;stroke:none">
        <path
           inkscape:connector-curvature="0"
           id="path46"
           style="fill:#eeeeee;fill-opacity:1;fill-rule:nonzero;stroke:none"
           d="M 5328.77,10736.6 C 5062.39,10011 4295.51,9562.48 3532.63,9692.7 c -579.31,98.91 -1071,520.6 -1261.48,1075.9 -194.79,567.9 -51.97,1212.1 362.32,1645.8 443.24,464.1 1137.3,625.5 1739.48,399.7 721.67,-270.6 1162.84,-1037.9 1030.7,-1798.4 -16.52,-95 -41.61,-188.5 -74.88,-279.1 -13.64,-37.1 63.98,174.1 0,0 z m 261.09,2341.4 c -612.85,612.8 -1519.11,870.9 -2362.86,672.9 -643.29,-151 -1211.19,-560 -1561.56,-1119.8 -177.78,-284.1 -297.8,-603.2 -350.9,-934.1 -57.93,-361 -27.38,-727.4 50.1,-1083.3 145.79,-669.56 451.69,-1299.9 800.35,-1885.66 303.89,-510.59 650.23,-996.08 1023.22,-1458.31 113.2,-140.31 228.99,-278.55 348.24,-413.75 62.32,-70.67 140.93,-179.37 230.03,-210.16 14.64,-5.11 36.52,-15.45 52.27,-16.16 20.66,-0.96 47.2,10.46 67.08,17.78 47.02,17.41 87.23,55.26 121.16,91.67 17.12,18.37 33.67,37.33 50.34,56.1 99.98,112.96 197.01,228.46 292.26,345.41 358.52,440.06 691.91,901.82 989.71,1385.13 360.41,584.88 679.36,1210.16 858.47,1876.15 97.32,362.1 154.39,743.1 121.19,1118 -34.92,394.7 -164.1,779 -375,1114.5 -100.91,160.5 -219.96,309.6 -354.1,443.6" />
      </g>
    </g>
    <g
       id="g64"
       transform="matrix(0.02442926,0,0,-0.02442926,291.01133,918.10309)"
       style="fill:#d2d2d2;fill-opacity:1;stroke:none">
      <g
         clip-path="url(#clipPath68)"
         id="g66"
         style="fill:#d2d2d2;fill-opacity:1;stroke:none">
        <path
           inkscape:connector-curvature="0"
           id="path78"
           style="fill:#d2d2d2;fill-opacity:1;fill-rule:nonzero;stroke:none"
           d="m 4354.5,12507.4 c 570.13,-257.1 891.7,-899.1 752.13,-1509.1 -107.41,-469.5 -474.47,-853.6 -937.6,-984.6 -473.6,-133.83 -993.85,11.4 -1330.97,369.3 -364.75,387.2 -464.33,970.8 -245.05,1456.7 261.81,580.2 920.19,901.1 1538.76,745.4 76.4,-19.3 150.84,-45.6 222.73,-77.7 39.37,-17.8 -29.34,13.1 0,0 z M 2100.49,11294.3 c 0,-710 458.1,-1361.8 1125.31,-1604.04 672.15,-244.02 1443.39,-30.27 1898.46,519.64 456.03,551 516.61,1351.4 145.93,1963.8 -370.76,612.5 -1104.82,936 -1806.98,792 -687.75,-141 -1233.5,-712.6 -1342.15,-1406.3 -13.74,-87.7 -20.57,-176.4 -20.57,-265.1" />
      </g>
    </g>
    <g
       id="g80"
       transform="matrix(0.0335615,0,0,-0.0335615,256.25481,1021.2429)"
       style="fill:#eeeeee;fill-opacity:1;stroke:none">
      <g
         clip-path="url(#clipPath84)"
         id="g82"
         style="fill:#eeeeee;fill-opacity:1;stroke:none">
        <path
           inkscape:connector-curvature="0"
           id="path94"
           style="fill:#eeeeee;fill-opacity:1;fill-rule:nonzero;stroke:none"
           d="m 3805.52,11921.7 c -261.73,0 -501.9,-169.6 -590.61,-415.7 -89.2,-247.4 -9.99,-530.4 192.35,-697.5 202.69,-167.4 496.94,-189.3 722,-53.2 223.99,135.5 343.11,403 292.4,660 -57.29,290.4 -320.34,506.4 -616.14,506.4" />
      </g>
    </g>
  </g>
</svg>
