<?xml version="1.0" encoding="UTF-8" standalone="no"?>
<!-- Created with Inkscape (http://www.inkscape.org/) -->

<svg
   xmlns:dc="http://purl.org/dc/elements/1.1/"
   xmlns:cc="http://creativecommons.org/ns#"
   xmlns:rdf="http://www.w3.org/1999/02/22-rdf-syntax-ns#"
   xmlns:svg="http://www.w3.org/2000/svg"
   xmlns="http://www.w3.org/2000/svg"
   version="1.1"
   width="199.37395"
   height="204.05325"
   id="svg3196">
  <defs
     id="defs3198" />
  <metadata
     id="metadata3201">
    <rdf:RDF>
      <cc:Work
         rdf:about="">
        <dc:format>image/svg+xml</dc:format>
        <dc:type
           rdf:resource="http://purl.org/dc/dcmitype/StillImage" />
        <dc:title></dc:title>
      </cc:Work>
    </rdf:RDF>
  </metadata>
  <g
     transform="translate(-275.31304,-430.33557)"
     id="layer1"
     style="opacity:0.02000002">
    <path
       d="m 395.07017,460.77045 c -9.27339,13.60096 -8.65708,26.46034 -8.65708,26.46034 0.74187,-2.2256 7.54311,-10.01598 9.64507,-12.73618 2.10197,-2.72019 10.73255,-11.08511 15.45557,-14.83931 4.82217,-3.833 11.74937,-7.17414 13.85134,-5.93769 2.10197,1.23646 1.97872,4.57757 -1.3597,12.11992 -3.33842,7.54236 -13.60322,13.23192 -22.75296,17.93043 -9.14975,4.69851 -16.93691,4.69888 -32.88714,7.91366 -15.95023,3.21477 -31.16273,10.75471 -37.59228,14.34043 -6.42954,3.58571 -20.89749,13.96986 -25.47236,22.25408 -4.35153,7.87981 -3.45542,24.47925 1.61403,35.97825 5.06945,11.499 14.83729,19.16723 22.31238,21.33222 7.4751,2.16501 17.49555,0.77574 25.65746,-2.86613 8.16191,-3.64186 13.88442,-6.58549 18.23914,-10.70975 4.43773,-4.20286 9.10631,-12.26268 9.31207,-20.56647 0.15986,-6.45121 -1.79523,-15.15267 -4.9665,-20.08755 -4.11654,-6.4058 -12.23773,-12.8055 -22.34252,-12.7405 -10.10479,0.065 -20.58496,6.8327 -25.83078,12.42824 -5.24582,5.59555 -8.481,12.68031 -8.481,18.71299 0,2.76396 -0.23617,3.63383 0.64209,7.47589 1.03866,4.54372 4.16624,8.79939 5.59394,9.99143 1.42768,1.19205 4.89032,4.44803 8.84975,3.80677 3.95943,-0.64125 1.26796,-4.86172 -1.26607,-6.82122 -2.53401,-1.95949 -10.23796,-8.16197 -2.98124,-19.26562 7.25671,-11.10365 21.85461,-12.8513 27.71244,-8.30493 5.85784,4.54638 9.3578,15.21203 7.43433,20.98242 -1.92346,5.77041 -4.37921,9.33393 -7.87022,12.27839 -3.491,2.94445 -9.67363,5.48573 -13.30782,6.62829 -3.6342,1.14256 -11.57827,2.52816 -18.31195,-2.00963 -6.73368,-4.53778 -11.8648,-14.46244 -11.49387,-28.92892 0.37094,-14.46648 23.18572,-27.7644 34.56108,-32.46292 11.37535,-4.69851 29.40979,-4.57638 40.57342,-8.34654 11.16362,-3.77018 20.18017,-10.09135 27.20943,-16.83356 7.02927,-6.7422 16.37759,-18.61563 20.06632,-27.20407 3.68873,-8.58844 2.54688,-13.32514 2.15271,-14.97816 -0.39418,-1.653 -1.3514,-4.23814 -4.61687,-6.77614 -3.26548,-2.53799 -8.20879,-3.02118 -9.77198,-2.96514 -1.5632,0.056 -5.85181,-0.0577 -12.74767,4.52258 -7.19986,4.78218 -15.05433,15.74804 -18.17256,20.2241 z"
       id="path4058"
       style="fill:none;stroke:#000000;stroke-width:1.56500006;stroke-linecap:round;stroke-linejoin:round;stroke-miterlimit:4;stroke-opacity:1;stroke-dasharray:none;display:inline" />
    <text
       x="336.33783"
       y="502.55814"
       id="text4060"
       xml:space="preserve"
       style="font-size:7.51258755px;font-style:normal;font-variant:normal;font-weight:normal;font-stretch:normal;text-align:center;line-height:125%;letter-spacing:0px;word-spacing:0px;text-anchor:middle;fill:#000000;fill-opacity:1;stroke:none;display:inline;font-family:Courier;-inkscape-font-specification:Sans"><tspan
         x="335.71179"
         y="502.55814"
         dx="0"
         dy="0 -15.651223"
         id="tspan4062"
         style="font-size:93.90733337px;font-style:normal;font-variant:normal;font-weight:500;font-stretch:normal;text-align:center;letter-spacing:-1.25209785px;writing-mode:lr-tb;text-anchor:middle;fill:#000000;fill-opacity:1;stroke:none;font-family:TeX Gyre Chorus;-inkscape-font-specification:TeX Gyre Chorus Medium"><tspan
   dy="15.651223"
   id="tspan4064"
   style="font-size:148.68661499px;letter-spacing:-31.30244637px;fill:#000000;fill-opacity:1;stroke:none">C</tspan>oro</tspan></text>
    <text
       x="420.66385"
       y="542.86646"
       id="text4066"
       xml:space="preserve"
       style="font-size:7.51258755px;font-style:normal;font-variant:normal;font-weight:normal;font-stretch:normal;text-align:center;line-height:125%;letter-spacing:0px;word-spacing:0px;text-anchor:middle;fill:#000000;fill-opacity:1;stroke:none;display:inline;font-family:Courier;-inkscape-font-specification:Sans"><tspan
         x="419.09872"
         y="542.86646"
         id="tspan4068"
         style="font-size:62.60489273px;font-style:italic;font-variant:normal;font-weight:500;font-stretch:normal;letter-spacing:-3.13024473px;fill:#000000;fill-opacity:1;stroke:none;font-family:TeX Gyre Chorus;-inkscape-font-specification:TeX Gyre Chorus Italic">della</tspan></text>
    <text
       x="392.72006"
       y="620.021"
       id="text4070"
       xml:space="preserve"
       style="font-size:7.51258755px;font-style:italic;font-variant:normal;font-weight:500;font-stretch:normal;text-align:center;line-height:125%;letter-spacing:0px;word-spacing:0px;text-anchor:middle;fill:#000000;fill-opacity:1;stroke:none;display:inline;font-family:TeX Gyre Chorus;-inkscape-font-specification:Sans Italic"><tspan
         x="390.37238"
         y="620.021"
         id="tspan4072"
         style="font-size:93.90733337px;letter-spacing:-4.69536686px;fill:#000000;fill-opacity:1;stroke:none">oska</tspan></text>
    <path
       d="m 375.9522,508.55168 c -2.82789,0.3713 -7.37107,0.88712 -10.67257,1.45321 -3.3418,8.32861 -8.30226,20.42575 -9.93422,23.57309 -2.44804,4.72124 -20.98242,48.95898 -20.98242,48.95898 0,0 -11.15892,27.43653 -13.98828,30.9503 -2.82936,3.51377 -4.36598,5.58642 -10.32002,8.9212 -5.95405,3.33478 -11.5803,2.34921 -13.1079,0.87059 -1.5276,-1.47861 -1.04668,-4.891 -1.04668,-4.891 0,0 9.26103,-2.44881 11.70907,-11.3667 2.44805,-8.9179 -1.39246,-16.9619 -7.51258,-19.75967 -6.12013,-2.79778 -14.42938,-0.36624 -19.4173,4.90079 -4.98792,5.26704 -7.01645,15.1024 -3.84433,23.94637 3.17211,8.84398 9.97256,13.12249 14.86866,15.22082 4.8961,2.09833 14.85987,2.26832 20.63026,-0.70431 5.77041,-2.97263 14.33541,-9.96394 17.83262,-16.43378 3.49721,-6.46985 24.4831,-53.68602 25.70714,-56.8335 1.15728,-2.9759 18.08089,-43.97392 20.07855,-48.80639 z"
       id="path4074"
       style="fill:#000000;fill-opacity:1;stroke:none;display:inline" />
  </g>
</svg>
